<svg width="24" height="24" viewBox="0 0 24 24" fill="none" xmlns="http://www.w3.org/2000/svg">
<path fill-rule="evenodd" clip-rule="evenodd" d="M2.75 12C2.75 6.89137 6.89137 2.75 12 2.75C17.1086 2.75 21.25 6.89137 21.25 12C21.25 17.1086 17.1086 21.25 12 21.25C6.89137 21.25 2.75 17.1086 2.75 12ZM12 1.25C6.06294 1.25 1.25 6.06294 1.25 12C1.25 17.9371 6.06294 22.75 12 22.75C17.9371 22.75 22.75 17.9371 22.75 12C22.75 6.06294 17.9371 1.25 12 1.25ZM16.5303 8.53033C16.8232 8.23744 16.8232 7.76256 16.5303 7.46967C16.2374 7.17678 15.7626 7.17678 15.4697 7.46967L12.0001 10.9393L10.0303 8.96965C9.7374 8.67677 9.26253 8.67679 8.96965 8.96969C8.67677 9.2626 8.67679 9.73747 8.96969 10.0304L10.9394 11.9999L10.4697 12.4697C10.1768 12.7626 10.1768 13.2374 10.4697 13.5303C10.7626 13.8232 11.2374 13.8232 11.5303 13.5303L12.0001 13.0605L12.4696 13.53C12.7625 13.8228 13.2374 13.8228 13.5303 13.5299C13.8231 13.237 13.8231 12.7621 13.5302 12.4692L13.0608 11.9999L16.5303 8.53033Z" fill="url(#paint0_linear_2911_15599)"/>
<defs>
<linearGradient id="paint0_linear_2911_15599" x1="12" y1="1.25" x2="12" y2="22.75" gradientUnits="userSpaceOnUse">
<stop stop-color="#5236FF"/>
<stop offset="1" stop-color="#312099"/>
</linearGradient>
</defs>
</svg>
